<svg width="194" height="18" viewBox="0 0 194 18" fill="none" xmlns="http://www.w3.org/2000/svg">
<path d="M1 6.5L9.16667 11.1667L17.3333 6.5M2.16667 3H16.1667C16.811 3 17.3333 3.52233 17.3333 4.16667V15.8333C17.3333 16.4777 16.811 17 16.1667 17H2.16667C1.52233 17 1 16.4777 1 15.8333V4.16667C1 3.52233 1.52233 3 2.16667 3Z" stroke="black"/>
<path d="M30.416 6.60352L30.4502 7.42383C30.9925 6.78581 31.724 6.4668 32.6445 6.4668C33.679 6.4668 34.3831 6.86328 34.7568 7.65625C35.0029 7.30078 35.3219 7.01367 35.7139 6.79492C36.1104 6.57617 36.5775 6.4668 37.1152 6.4668C38.7376 6.4668 39.5625 7.32585 39.5898 9.04395V14H38.3252V9.11914C38.3252 8.59049 38.2044 8.19629 37.9629 7.93652C37.7214 7.6722 37.3158 7.54004 36.7461 7.54004C36.2767 7.54004 35.887 7.68132 35.5771 7.96387C35.2673 8.24186 35.0872 8.61784 35.0371 9.0918V14H33.7656V9.15332C33.7656 8.0778 33.2393 7.54004 32.1865 7.54004C31.3571 7.54004 30.7897 7.89323 30.4844 8.59961V14H29.2197V6.60352H30.416ZM44.5732 14.1367C43.5706 14.1367 42.7549 13.8086 42.126 13.1523C41.4971 12.4915 41.1826 11.6097 41.1826 10.5068V10.2744C41.1826 9.54069 41.3216 8.88672 41.5996 8.3125C41.8822 7.73372 42.2741 7.28255 42.7754 6.95898C43.2812 6.63086 43.8281 6.4668 44.416 6.4668C45.3776 6.4668 46.125 6.78353 46.6582 7.41699C47.1914 8.05046 47.458 8.95736 47.458 10.1377V10.6641H42.4473C42.4655 11.3932 42.6774 11.9834 43.083 12.4346C43.4932 12.8812 44.0127 13.1045 44.6416 13.1045C45.0882 13.1045 45.4665 13.0133 45.7764 12.8311C46.0863 12.6488 46.3574 12.4072 46.5898 12.1064L47.3623 12.708C46.7425 13.6605 45.8128 14.1367 44.5732 14.1367ZM44.416 7.50586C43.9056 7.50586 43.4772 7.69271 43.1309 8.06641C42.7845 8.43555 42.5703 8.95508 42.4883 9.625H46.1934V9.5293C46.1569 8.88672 45.9837 8.38997 45.6738 8.03906C45.3639 7.68359 44.9447 7.50586 44.416 7.50586ZM55.1895 10.3838C55.1895 11.514 54.9297 12.4232 54.4102 13.1113C53.8906 13.7949 53.1934 14.1367 52.3184 14.1367C51.3841 14.1367 50.6618 13.8063 50.1514 13.1455L50.0898 14H48.9277V3.5H50.1924V7.41699C50.7028 6.78353 51.4069 6.4668 52.3047 6.4668C53.2025 6.4668 53.9066 6.80632 54.417 7.48535C54.932 8.16439 55.1895 9.09408 55.1895 10.2744V10.3838ZM53.9248 10.2402C53.9248 9.37891 53.7585 8.71354 53.4258 8.24414C53.0931 7.77474 52.6146 7.54004 51.9902 7.54004C51.1562 7.54004 50.557 7.92741 50.1924 8.70215V11.9014C50.5798 12.6761 51.1836 13.0635 52.0039 13.0635C52.61 13.0635 53.0817 12.8288 53.4189 12.3594C53.7562 11.89 53.9248 11.1836 53.9248 10.2402ZM59.8584 14.1367C58.8558 14.1367 58.04 13.8086 57.4111 13.1523C56.7822 12.4915 56.4678 11.6097 56.4678 10.5068V10.2744C56.4678 9.54069 56.6068 8.88672 56.8848 8.3125C57.1673 7.73372 57.5592 7.28255 58.0605 6.95898C58.5664 6.63086 59.1133 6.4668 59.7012 6.4668C60.6628 6.4668 61.4102 6.78353 61.9434 7.41699C62.4766 8.05046 62.7432 8.95736 62.7432 10.1377V10.6641H57.7324C57.7507 11.3932 57.9626 11.9834 58.3682 12.4346C58.7783 12.8812 59.2979 13.1045 59.9268 13.1045C60.3734 13.1045 60.7516 13.0133 61.0615 12.8311C61.3714 12.6488 61.6426 12.4072 61.875 12.1064L62.6475 12.708C62.0277 13.6605 61.098 14.1367 59.8584 14.1367ZM59.7012 7.50586C59.1908 7.50586 58.7624 7.69271 58.416 8.06641C58.0697 8.43555 57.8555 8.95508 57.7734 9.625H61.4785V9.5293C61.4421 8.88672 61.2689 8.38997 60.959 8.03906C60.6491 7.68359 60.2298 7.50586 59.7012 7.50586ZM65.5869 14H64.3223V3.5H65.5869V14ZM72.9492 15.0322H66.6875V14H72.9492V15.0322ZM75.3076 14H74.043V3.5H75.3076V14ZM77.0029 10.2334C77.0029 9.50879 77.1442 8.8571 77.4268 8.27832C77.7139 7.69954 78.1104 7.25293 78.6162 6.93848C79.1266 6.62402 79.7077 6.4668 80.3594 6.4668C81.3665 6.4668 82.18 6.81543 82.7998 7.5127C83.4242 8.20996 83.7363 9.13737 83.7363 10.2949V10.3838C83.7363 11.1038 83.5973 11.751 83.3193 12.3252C83.0459 12.8949 82.6517 13.3392 82.1367 13.6582C81.6263 13.9772 81.0384 14.1367 80.373 14.1367C79.3704 14.1367 78.557 13.7881 77.9326 13.0908C77.3128 12.3936 77.0029 11.4707 77.0029 10.3223V10.2334ZM78.2744 10.3838C78.2744 11.2041 78.4635 11.8626 78.8418 12.3594C79.2246 12.8561 79.735 13.1045 80.373 13.1045C81.0156 13.1045 81.526 12.8538 81.9043 12.3525C82.2826 11.8467 82.4717 11.1403 82.4717 10.2334C82.4717 9.4222 82.278 8.76595 81.8906 8.26465C81.5078 7.75879 80.9974 7.50586 80.3594 7.50586C79.735 7.50586 79.2314 7.75423 78.8486 8.25098C78.4658 8.74772 78.2744 9.45866 78.2744 10.3838ZM85.9443 14V7.58105H84.7754V6.60352H85.9443V5.84473C85.9443 5.05176 86.1562 4.4388 86.5801 4.00586C87.0039 3.57292 87.6032 3.35645 88.3779 3.35645C88.6696 3.35645 88.959 3.39518 89.2461 3.47266L89.1777 4.49805C88.9635 4.45703 88.7357 4.43652 88.4941 4.43652C88.084 4.43652 87.7673 4.55729 87.5439 4.79883C87.3206 5.03581 87.209 5.3776 87.209 5.82422V6.60352H88.7881V7.58105H87.209V14H85.9443ZM91.9053 4.8125V6.60352H93.2861V7.58105H91.9053V12.168C91.9053 12.4642 91.9668 12.6875 92.0898 12.8379C92.2129 12.9837 92.4225 13.0566 92.7188 13.0566C92.8646 13.0566 93.0651 13.0293 93.3203 12.9746V14C92.9876 14.0911 92.6641 14.1367 92.3496 14.1367C91.7845 14.1367 91.3584 13.9658 91.0713 13.624C90.7842 13.2822 90.6406 12.7969 90.6406 12.168V7.58105H89.2939V6.60352H90.6406V4.8125H91.9053ZM100.102 15.0322H93.8398V14H100.102V15.0322ZM105.652 14C105.579 13.8542 105.52 13.5944 105.475 13.2207C104.887 13.8314 104.185 14.1367 103.369 14.1367C102.64 14.1367 102.041 13.9316 101.571 13.5215C101.106 13.1068 100.874 12.5827 100.874 11.9492C100.874 11.179 101.166 10.582 101.749 10.1582C102.337 9.72982 103.162 9.51562 104.224 9.51562H105.454V8.93457C105.454 8.49251 105.322 8.1416 105.058 7.88184C104.793 7.61751 104.404 7.48535 103.889 7.48535C103.438 7.48535 103.059 7.59928 102.754 7.82715C102.449 8.05501 102.296 8.33073 102.296 8.6543H101.024C101.024 8.28516 101.154 7.92969 101.414 7.58789C101.678 7.24154 102.034 6.9681 102.48 6.76758C102.932 6.56706 103.426 6.4668 103.964 6.4668C104.816 6.4668 105.484 6.68099 105.967 7.10938C106.45 7.5332 106.701 8.11882 106.719 8.86621V12.2705C106.719 12.9495 106.805 13.4896 106.979 13.8906V14H105.652ZM103.554 13.0361C103.95 13.0361 104.326 12.9336 104.682 12.7285C105.037 12.5234 105.295 12.2568 105.454 11.9287V10.4111H104.463C102.913 10.4111 102.139 10.8646 102.139 11.7715C102.139 12.168 102.271 12.4779 102.535 12.7012C102.799 12.9245 103.139 13.0361 103.554 13.0361ZM109.897 6.60352L109.938 7.5332C110.504 6.82227 111.242 6.4668 112.153 6.4668C113.716 6.4668 114.505 7.34863 114.519 9.1123V14H113.254V9.10547C113.249 8.57227 113.126 8.17806 112.885 7.92285C112.648 7.66764 112.276 7.54004 111.771 7.54004C111.36 7.54004 111 7.64941 110.69 7.86816C110.381 8.08691 110.139 8.37402 109.966 8.72949V14H108.701V6.60352H109.897ZM120.992 14C120.919 13.8542 120.86 13.5944 120.814 13.2207C120.227 13.8314 119.525 14.1367 118.709 14.1367C117.98 14.1367 117.381 13.9316 116.911 13.5215C116.446 13.1068 116.214 12.5827 116.214 11.9492C116.214 11.179 116.506 10.582 117.089 10.1582C117.677 9.72982 118.502 9.51562 119.563 9.51562H120.794V8.93457C120.794 8.49251 120.662 8.1416 120.397 7.88184C120.133 7.61751 119.743 7.48535 119.229 7.48535C118.777 7.48535 118.399 7.59928 118.094 7.82715C117.788 8.05501 117.636 8.33073 117.636 8.6543H116.364C116.364 8.28516 116.494 7.92969 116.754 7.58789C117.018 7.24154 117.374 6.9681 117.82 6.76758C118.271 6.56706 118.766 6.4668 119.304 6.4668C120.156 6.4668 120.824 6.68099 121.307 7.10938C121.79 7.5332 122.04 8.11882 122.059 8.86621V12.2705C122.059 12.9495 122.145 13.4896 122.318 13.8906V14H120.992ZM118.894 13.0361C119.29 13.0361 119.666 12.9336 120.021 12.7285C120.377 12.5234 120.634 12.2568 120.794 11.9287V10.4111H119.803C118.253 10.4111 117.479 10.8646 117.479 11.7715C117.479 12.168 117.611 12.4779 117.875 12.7012C118.139 12.9245 118.479 13.0361 118.894 13.0361ZM130.289 10.3838C130.289 11.5094 130.032 12.4163 129.517 13.1045C129.002 13.7926 128.304 14.1367 127.425 14.1367C126.527 14.1367 125.821 13.8519 125.306 13.2822V16.8438H124.041V6.60352H125.196L125.258 7.42383C125.773 6.78581 126.488 6.4668 127.404 6.4668C128.293 6.4668 128.995 6.80176 129.51 7.47168C130.029 8.1416 130.289 9.07357 130.289 10.2676V10.3838ZM129.024 10.2402C129.024 9.40625 128.847 8.74772 128.491 8.26465C128.136 7.78158 127.648 7.54004 127.028 7.54004C126.263 7.54004 125.688 7.87956 125.306 8.55859V12.0928C125.684 12.7673 126.263 13.1045 127.042 13.1045C127.648 13.1045 128.129 12.8652 128.484 12.3867C128.844 11.9036 129.024 11.1882 129.024 10.2402ZM136.469 14C136.396 13.8542 136.337 13.5944 136.291 13.2207C135.703 13.8314 135.001 14.1367 134.186 14.1367C133.456 14.1367 132.857 13.9316 132.388 13.5215C131.923 13.1068 131.69 12.5827 131.69 11.9492C131.69 11.179 131.982 10.582 132.565 10.1582C133.153 9.72982 133.978 9.51562 135.04 9.51562H136.271V8.93457C136.271 8.49251 136.138 8.1416 135.874 7.88184C135.61 7.61751 135.22 7.48535 134.705 7.48535C134.254 7.48535 133.876 7.59928 133.57 7.82715C133.265 8.05501 133.112 8.33073 133.112 8.6543H131.841C131.841 8.28516 131.971 7.92969 132.23 7.58789C132.495 7.24154 132.85 6.9681 133.297 6.76758C133.748 6.56706 134.243 6.4668 134.78 6.4668C135.632 6.4668 136.3 6.68099 136.783 7.10938C137.266 7.5332 137.517 8.11882 137.535 8.86621V12.2705C137.535 12.9495 137.622 13.4896 137.795 13.8906V14H136.469ZM134.37 13.0361C134.767 13.0361 135.143 12.9336 135.498 12.7285C135.854 12.5234 136.111 12.2568 136.271 11.9287V10.4111H135.279C133.73 10.4111 132.955 10.8646 132.955 11.7715C132.955 12.168 133.087 12.4779 133.352 12.7012C133.616 12.9245 133.955 13.0361 134.37 13.0361ZM150.441 10.5684C150.387 11.6712 150.113 12.5417 149.621 13.1797C149.129 13.8177 148.47 14.1367 147.646 14.1367C146.793 14.1367 146.246 13.7539 146.005 12.9883C145.759 13.3757 145.476 13.665 145.157 13.8564C144.843 14.0433 144.517 14.1367 144.18 14.1367C143.533 14.1367 143.043 13.8724 142.71 13.3438C142.377 12.8151 142.254 12.0837 142.341 11.1494C142.409 10.3975 142.58 9.72754 142.854 9.13965C143.132 8.5472 143.487 8.08236 143.92 7.74512C144.357 7.40788 144.815 7.23926 145.294 7.23926C145.663 7.23926 145.993 7.28939 146.285 7.38965C146.577 7.48535 146.905 7.67676 147.27 7.96387L146.914 11.751C146.827 12.8037 147.119 13.3301 147.789 13.3301C148.304 13.3301 148.721 13.0749 149.04 12.5645C149.359 12.054 149.532 11.3887 149.56 10.5684C149.646 8.79557 149.316 7.44434 148.568 6.51465C147.826 5.58496 146.693 5.12012 145.171 5.12012C144.255 5.12012 143.441 5.34798 142.73 5.80371C142.02 6.25488 141.459 6.90885 141.049 7.76562C140.639 8.6224 140.409 9.61133 140.358 10.7324C140.304 11.8626 140.44 12.8447 140.769 13.6787C141.097 14.5081 141.596 15.1416 142.266 15.5791C142.94 16.0212 143.754 16.2422 144.706 16.2422C145.116 16.2422 145.526 16.1921 145.937 16.0918C146.351 15.9915 146.695 15.8617 146.969 15.7021L147.222 16.4883C146.939 16.666 146.563 16.8118 146.094 16.9258C145.629 17.0397 145.157 17.0967 144.679 17.0967C143.539 17.0967 142.56 16.8392 141.739 16.3242C140.919 15.8138 140.304 15.0755 139.894 14.1094C139.488 13.1478 139.312 12.0221 139.367 10.7324C139.422 9.47917 139.702 8.35352 140.208 7.35547C140.714 6.35286 141.4 5.5804 142.266 5.03809C143.132 4.49121 144.109 4.21777 145.198 4.21777C146.333 4.21777 147.306 4.47298 148.117 4.9834C148.928 5.49382 149.532 6.22982 149.929 7.19141C150.325 8.15299 150.496 9.27865 150.441 10.5684ZM143.428 11.1494C143.364 11.7965 143.423 12.2933 143.605 12.6396C143.792 12.986 144.086 13.1592 144.487 13.1592C144.761 13.1592 145.023 13.043 145.273 12.8105C145.529 12.5781 145.738 12.2454 145.902 11.8125L145.909 11.751L146.224 8.3125C145.968 8.18034 145.695 8.11426 145.403 8.11426C144.87 8.11426 144.428 8.38542 144.077 8.92773C143.731 9.47005 143.514 10.2106 143.428 11.1494ZM153.285 6.60352L153.319 7.42383C153.862 6.78581 154.593 6.4668 155.514 6.4668C156.548 6.4668 157.252 6.86328 157.626 7.65625C157.872 7.30078 158.191 7.01367 158.583 6.79492C158.979 6.57617 159.447 6.4668 159.984 6.4668C161.607 6.4668 162.432 7.32585 162.459 9.04395V14H161.194V9.11914C161.194 8.59049 161.074 8.19629 160.832 7.93652C160.59 7.6722 160.185 7.54004 159.615 7.54004C159.146 7.54004 158.756 7.68132 158.446 7.96387C158.136 8.24186 157.956 8.61784 157.906 9.0918V14H156.635V9.15332C156.635 8.0778 156.108 7.54004 155.056 7.54004C154.226 7.54004 153.659 7.89323 153.354 8.59961V14H152.089V6.60352H153.285ZM168.939 14C168.867 13.8542 168.807 13.5944 168.762 13.2207C168.174 13.8314 167.472 14.1367 166.656 14.1367C165.927 14.1367 165.328 13.9316 164.858 13.5215C164.394 13.1068 164.161 12.5827 164.161 11.9492C164.161 11.179 164.453 10.582 165.036 10.1582C165.624 9.72982 166.449 9.51562 167.511 9.51562H168.741V8.93457C168.741 8.49251 168.609 8.1416 168.345 7.88184C168.08 7.61751 167.691 7.48535 167.176 7.48535C166.725 7.48535 166.346 7.59928 166.041 7.82715C165.736 8.05501 165.583 8.33073 165.583 8.6543H164.312C164.312 8.28516 164.441 7.92969 164.701 7.58789C164.965 7.24154 165.321 6.9681 165.768 6.76758C166.219 6.56706 166.713 6.4668 167.251 6.4668C168.103 6.4668 168.771 6.68099 169.254 7.10938C169.737 7.5332 169.988 8.11882 170.006 8.86621V12.2705C170.006 12.9495 170.092 13.4896 170.266 13.8906V14H168.939ZM166.841 13.0361C167.237 13.0361 167.613 12.9336 167.969 12.7285C168.324 12.5234 168.582 12.2568 168.741 11.9287V10.4111H167.75C166.201 10.4111 165.426 10.8646 165.426 11.7715C165.426 12.168 165.558 12.4779 165.822 12.7012C166.087 12.9245 166.426 13.0361 166.841 13.0361ZM173.362 14H172.098V6.60352H173.362V14ZM171.995 4.6416C171.995 4.43652 172.057 4.26335 172.18 4.12207C172.307 3.98079 172.494 3.91016 172.74 3.91016C172.986 3.91016 173.173 3.98079 173.301 4.12207C173.428 4.26335 173.492 4.43652 173.492 4.6416C173.492 4.84668 173.428 5.01758 173.301 5.1543C173.173 5.29102 172.986 5.35938 172.74 5.35938C172.494 5.35938 172.307 5.29102 172.18 5.1543C172.057 5.01758 171.995 4.84668 171.995 4.6416ZM176.767 14H175.502V3.5H176.767V14ZM178.824 13.3369C178.824 13.1182 178.888 12.9359 179.016 12.79C179.148 12.6442 179.344 12.5713 179.604 12.5713C179.863 12.5713 180.059 12.6442 180.191 12.79C180.328 12.9359 180.396 13.1182 180.396 13.3369C180.396 13.5465 180.328 13.722 180.191 13.8633C180.059 14.0046 179.863 14.0752 179.604 14.0752C179.344 14.0752 179.148 14.0046 179.016 13.8633C178.888 13.722 178.824 13.5465 178.824 13.3369ZM186.063 7.73828C185.872 7.70638 185.665 7.69043 185.441 7.69043C184.612 7.69043 184.049 8.04362 183.753 8.75V14H182.488V6.60352H183.719L183.739 7.45801C184.154 6.7972 184.742 6.4668 185.503 6.4668C185.749 6.4668 185.936 6.4987 186.063 6.5625V7.73828ZM191.799 13.2686C191.307 13.8473 190.584 14.1367 189.632 14.1367C188.843 14.1367 188.242 13.9089 187.827 13.4531C187.417 12.9928 187.21 12.3138 187.205 11.416V6.60352H188.47V11.3818C188.47 12.5029 188.925 13.0635 189.837 13.0635C190.803 13.0635 191.446 12.7035 191.765 11.9834V6.60352H193.029V14H191.826L191.799 13.2686Z" fill="#414141"/>
</svg>
