<svg width="94" height="17" viewBox="0 0 94 17" fill="none" xmlns="http://www.w3.org/2000/svg">
<path d="M28.9199 13H27.7949V4.46875H28.9199V13ZM37.5391 13H36.4082L32.1133 6.42578V13H30.9824V4.46875H32.1133L36.4199 11.0723V4.46875H37.5391V13ZM42.0508 9.19727C41.0859 8.91992 40.3828 8.58008 39.9414 8.17773C39.5039 7.77148 39.2852 7.27148 39.2852 6.67773C39.2852 6.00586 39.5527 5.45117 40.0879 5.01367C40.627 4.57227 41.3262 4.35156 42.1855 4.35156C42.7715 4.35156 43.293 4.46484 43.75 4.69141C44.2109 4.91797 44.5664 5.23047 44.8164 5.62891C45.0703 6.02734 45.1973 6.46289 45.1973 6.93555H44.0664C44.0664 6.41992 43.9023 6.01562 43.5742 5.72266C43.2461 5.42578 42.7832 5.27734 42.1855 5.27734C41.6309 5.27734 41.1973 5.40039 40.8848 5.64648C40.5762 5.88867 40.4219 6.22656 40.4219 6.66016C40.4219 7.00781 40.5684 7.30273 40.8613 7.54492C41.1582 7.7832 41.6602 8.00195 42.3672 8.20117C43.0781 8.40039 43.6328 8.62109 44.0312 8.86328C44.4336 9.10156 44.7305 9.38086 44.9219 9.70117C45.1172 10.0215 45.2148 10.3984 45.2148 10.832C45.2148 11.5234 44.9453 12.0781 44.4062 12.4961C43.8672 12.9102 43.1465 13.1172 42.2441 13.1172C41.6582 13.1172 41.1113 13.0059 40.6035 12.7832C40.0957 12.5566 39.7031 12.248 39.4258 11.8574C39.1523 11.4668 39.0156 11.0234 39.0156 10.5273H40.1465C40.1465 11.043 40.3359 11.4512 40.7148 11.752C41.0977 12.0488 41.6074 12.1973 42.2441 12.1973C42.8379 12.1973 43.293 12.0762 43.6094 11.834C43.9258 11.5918 44.084 11.2617 44.084 10.8438C44.084 10.4258 43.9375 10.1035 43.6445 9.87695C43.3516 9.64648 42.8203 9.41992 42.0508 9.19727ZM52.5566 5.39453H49.8145V13H48.6953V5.39453H45.959V4.46875H52.5566V5.39453ZM58.0645 10.7734H54.4902L53.6875 13H52.5273L55.7852 4.46875H56.7695L60.0332 13H58.8789L58.0645 10.7734ZM54.8301 9.84766H57.7305L56.2773 5.85742L54.8301 9.84766ZM67.4102 11.8809C67.1211 12.2949 66.7168 12.6055 66.1973 12.8125C65.6816 13.0156 65.0801 13.1172 64.3926 13.1172C63.6973 13.1172 63.0801 12.9551 62.541 12.6309C62.002 12.3027 61.584 11.8379 61.2871 11.2363C60.9941 10.6348 60.8438 9.9375 60.8359 9.14453V8.40039C60.8359 7.11523 61.1348 6.11914 61.7324 5.41211C62.334 4.70508 63.1777 4.35156 64.2637 4.35156C65.1543 4.35156 65.8711 4.58008 66.4141 5.03711C66.957 5.49023 67.2891 6.13477 67.4102 6.9707H66.2852C66.0742 5.8418 65.4023 5.27734 64.2695 5.27734C63.5156 5.27734 62.9434 5.54297 62.5527 6.07422C62.166 6.60156 61.9707 7.36719 61.9668 8.37109V9.06836C61.9668 10.0254 62.1855 10.7871 62.623 11.3535C63.0605 11.916 63.6523 12.1973 64.3984 12.1973C64.8203 12.1973 65.1895 12.1504 65.5059 12.0566C65.8223 11.9629 66.084 11.8047 66.291 11.582V9.66602H64.3164V8.75195H67.4102V11.8809ZM72.4199 9.54883H70.416V13H69.2852V4.46875H72.1094C73.0703 4.46875 73.8086 4.6875 74.3242 5.125C74.8438 5.5625 75.1035 6.19922 75.1035 7.03516C75.1035 7.56641 74.959 8.0293 74.6699 8.42383C74.3848 8.81836 73.9863 9.11328 73.4746 9.30859L75.4785 12.9297V13H74.2715L72.4199 9.54883ZM70.416 8.62891H72.1445C72.7031 8.62891 73.1465 8.48438 73.4746 8.19531C73.8066 7.90625 73.9727 7.51953 73.9727 7.03516C73.9727 6.50781 73.8145 6.10352 73.498 5.82227C73.1855 5.54102 72.7324 5.39844 72.1387 5.39453H70.416V8.62891ZM81.3965 10.7734H77.8223L77.0195 13H75.8594L79.1172 4.46875H80.1016L83.3652 13H82.2109L81.3965 10.7734ZM78.1621 9.84766H81.0625L79.6094 5.85742L78.1621 9.84766ZM85.9668 4.46875L88.7559 11.4297L91.5449 4.46875H93.0039V13H91.8789V9.67773L91.9844 6.0918L89.1836 13H88.3223L85.5273 6.10938L85.6387 9.67773V13H84.5137V4.46875H85.9668Z" fill="#414141"/>
<path d="M12.25 4.21429H13.3214M5.28571 1H11.7143C14.0812 1 16 2.91878 16 5.28571V11.7143C16 14.0812 14.0812 16 11.7143 16H5.28571C2.91878 16 1 14.0812 1 11.7143V5.28571C1 2.91878 2.91878 1 5.28571 1ZM8.5 11.7143C6.7248 11.7143 5.28571 10.2752 5.28571 8.5C5.28571 6.7248 6.7248 5.28571 8.5 5.28571C10.2752 5.28571 11.7143 6.7248 11.7143 8.5C11.7143 10.2752 10.2752 11.7143 8.5 11.7143Z" stroke="black"/>
</svg>
