<svg width="136" height="18" viewBox="0 0 136 18" fill="none" xmlns="http://www.w3.org/2000/svg">
<path d="M32.8457 6.64453C32.8457 7.14128 32.7135 7.58333 32.4492 7.9707C32.1895 8.35807 31.8363 8.66113 31.3896 8.87988C31.9092 9.10319 32.3193 9.42904 32.6201 9.85742C32.9255 10.2858 33.0781 10.7712 33.0781 11.3135C33.0781 12.1748 32.7865 12.8607 32.2031 13.3711C31.6243 13.8815 30.861 14.1367 29.9131 14.1367C28.9561 14.1367 28.1882 13.8815 27.6094 13.3711C27.0352 12.8561 26.748 12.1702 26.748 11.3135C26.748 10.7757 26.8939 10.2904 27.1855 9.85742C27.4818 9.42448 27.8896 9.09635 28.4092 8.87305C27.9671 8.6543 27.6185 8.35124 27.3633 7.96387C27.1081 7.5765 26.9805 7.13672 26.9805 6.64453C26.9805 5.80599 27.2493 5.14062 27.7871 4.64844C28.3249 4.15625 29.0335 3.91016 29.9131 3.91016C30.7881 3.91016 31.4945 4.15625 32.0322 4.64844C32.5745 5.14062 32.8457 5.80599 32.8457 6.64453ZM31.8135 11.2861C31.8135 10.7301 31.6357 10.2767 31.2803 9.92578C30.9294 9.57487 30.4691 9.39941 29.8994 9.39941C29.3298 9.39941 28.8717 9.57259 28.5254 9.91895C28.1836 10.2653 28.0127 10.721 28.0127 11.2861C28.0127 11.8512 28.179 12.2956 28.5117 12.6191C28.849 12.9427 29.3161 13.1045 29.9131 13.1045C30.5055 13.1045 30.9704 12.9427 31.3076 12.6191C31.6449 12.291 31.8135 11.8467 31.8135 11.2861ZM29.9131 4.94922C29.4163 4.94922 29.013 5.10417 28.7031 5.41406C28.3978 5.7194 28.2451 6.13639 28.2451 6.66504C28.2451 7.1709 28.3955 7.58105 28.6963 7.89551C29.0016 8.2054 29.4072 8.36035 29.9131 8.36035C30.4189 8.36035 30.8223 8.2054 31.123 7.89551C31.4284 7.58105 31.5811 7.1709 31.5811 6.66504C31.5811 6.15918 31.4238 5.74674 31.1094 5.42773C30.7949 5.10872 30.3962 4.94922 29.9131 4.94922ZM38.2256 9.95996C38.2256 8.93001 38.3623 7.94108 38.6357 6.99316C38.9137 6.04525 39.3262 5.18392 39.873 4.40918C40.4199 3.63444 40.9873 3.08757 41.5752 2.76855L41.835 3.60254C41.1696 4.11296 40.6227 4.89225 40.1943 5.94043C39.7705 6.98861 39.5381 8.16211 39.4971 9.46094L39.4902 10.042C39.4902 11.8011 39.8115 13.3278 40.4541 14.6221C40.8415 15.3968 41.3018 16.0029 41.835 16.4404L41.5752 17.2129C40.9691 16.8757 40.3903 16.3105 39.8389 15.5176C38.7633 13.9681 38.2256 12.1156 38.2256 9.95996ZM47.7754 9.625C47.5111 9.93945 47.1943 10.1924 46.8252 10.3838C46.4606 10.5752 46.0596 10.6709 45.6221 10.6709C45.0479 10.6709 44.5465 10.5296 44.1182 10.2471C43.6943 9.96452 43.3662 9.56803 43.1338 9.05762C42.9014 8.54264 42.7852 7.97526 42.7852 7.35547C42.7852 6.6901 42.9105 6.09082 43.1611 5.55762C43.4163 5.02441 43.7764 4.61654 44.2412 4.33398C44.7061 4.05143 45.2484 3.91016 45.8682 3.91016C46.8525 3.91016 47.6273 4.2793 48.1924 5.01758C48.762 5.7513 49.0469 6.75391 49.0469 8.02539V8.39453C49.0469 10.3314 48.6641 11.7464 47.8984 12.6396C47.1328 13.5283 45.9775 13.984 44.4326 14.0068H44.1865V12.9404H44.4531C45.4967 12.9222 46.2988 12.651 46.8594 12.127C47.4199 11.5983 47.7253 10.7643 47.7754 9.625ZM45.8271 9.625C46.251 9.625 46.6406 9.49512 46.9961 9.23535C47.3561 8.97559 47.6182 8.6543 47.7822 8.27148V7.76562C47.7822 6.9362 47.6022 6.26172 47.2422 5.74219C46.8822 5.22266 46.4264 4.96289 45.875 4.96289C45.319 4.96289 44.8724 5.17708 44.5352 5.60547C44.1979 6.0293 44.0293 6.58984 44.0293 7.28711C44.0293 7.96615 44.1911 8.52669 44.5146 8.96875C44.8428 9.40625 45.2803 9.625 45.8271 9.625ZM55.7529 4.04004V5.11328H55.5205C54.5361 5.13151 53.7523 5.42318 53.1689 5.98828C52.5856 6.55339 52.2484 7.34863 52.1572 8.37402C52.6813 7.77246 53.3968 7.47168 54.3037 7.47168C55.1696 7.47168 55.86 7.77702 56.375 8.3877C56.8945 8.99837 57.1543 9.78678 57.1543 10.7529C57.1543 11.7783 56.874 12.5986 56.3135 13.2139C55.7575 13.8291 55.0101 14.1367 54.0713 14.1367C53.1188 14.1367 52.3464 13.7721 51.7539 13.043C51.1615 12.3092 50.8652 11.3659 50.8652 10.2129V9.72754C50.8652 7.89551 51.2549 6.49642 52.0342 5.53027C52.818 4.55957 53.9824 4.06283 55.5273 4.04004H55.7529ZM54.0918 8.52441C53.6589 8.52441 53.2601 8.6543 52.8955 8.91406C52.5309 9.17383 52.278 9.49967 52.1367 9.8916V10.3564C52.1367 11.1768 52.3213 11.8376 52.6904 12.3389C53.0596 12.8402 53.5199 13.0908 54.0713 13.0908C54.641 13.0908 55.0876 12.8812 55.4111 12.4619C55.7393 12.0426 55.9033 11.4935 55.9033 10.8145C55.9033 10.1309 55.737 9.57943 55.4043 9.16016C55.0762 8.73633 54.6387 8.52441 54.0918 8.52441ZM63.9902 10.6572H65.3711V11.6895H63.9902V14H62.7188V11.6895H58.1865V10.9443L62.6436 4.04688H63.9902V10.6572ZM59.6221 10.6572H62.7188V5.77637L62.5684 6.0498L59.6221 10.6572ZM69.5615 10.0283C69.5615 11.0446 69.4271 12.0199 69.1582 12.9541C68.8939 13.8838 68.486 14.7428 67.9346 15.5312C67.3877 16.3197 66.8135 16.8802 66.2119 17.2129L65.9453 16.4404C66.6471 15.9027 67.21 15.0687 67.6338 13.9385C68.0622 12.8037 68.2809 11.5459 68.29 10.165V9.94629C68.29 8.98926 68.1898 8.10059 67.9893 7.28027C67.7887 6.4554 67.5085 5.71712 67.1484 5.06543C66.793 4.41374 66.3919 3.9056 65.9453 3.54102L66.2119 2.76855C66.8135 3.10124 67.3854 3.65723 67.9277 4.43652C68.4746 5.21582 68.8825 6.07487 69.1514 7.01367C69.4248 7.95247 69.5615 8.95736 69.5615 10.0283ZM80.8887 6.64453C80.8887 7.14128 80.7565 7.58333 80.4922 7.9707C80.2324 8.35807 79.8792 8.66113 79.4326 8.87988C79.9521 9.10319 80.3623 9.42904 80.6631 9.85742C80.9684 10.2858 81.1211 10.7712 81.1211 11.3135C81.1211 12.1748 80.8294 12.8607 80.2461 13.3711C79.6673 13.8815 78.904 14.1367 77.9561 14.1367C76.999 14.1367 76.2311 13.8815 75.6523 13.3711C75.0781 12.8561 74.791 12.1702 74.791 11.3135C74.791 10.7757 74.9368 10.2904 75.2285 9.85742C75.5247 9.42448 75.9326 9.09635 76.4521 8.87305C76.0101 8.6543 75.6615 8.35124 75.4062 7.96387C75.151 7.5765 75.0234 7.13672 75.0234 6.64453C75.0234 5.80599 75.2923 5.14062 75.8301 4.64844C76.3678 4.15625 77.0765 3.91016 77.9561 3.91016C78.8311 3.91016 79.5374 4.15625 80.0752 4.64844C80.6175 5.14062 80.8887 5.80599 80.8887 6.64453ZM79.8564 11.2861C79.8564 10.7301 79.6787 10.2767 79.3232 9.92578C78.9723 9.57487 78.512 9.39941 77.9424 9.39941C77.3727 9.39941 76.9147 9.57259 76.5684 9.91895C76.2266 10.2653 76.0557 10.721 76.0557 11.2861C76.0557 11.8512 76.222 12.2956 76.5547 12.6191C76.8919 12.9427 77.359 13.1045 77.9561 13.1045C78.5485 13.1045 79.0133 12.9427 79.3506 12.6191C79.6878 12.291 79.8564 11.8467 79.8564 11.2861ZM77.9561 4.94922C77.4593 4.94922 77.056 5.10417 76.7461 5.41406C76.4408 5.7194 76.2881 6.13639 76.2881 6.66504C76.2881 7.1709 76.4385 7.58105 76.7393 7.89551C77.0446 8.2054 77.4502 8.36035 77.9561 8.36035C78.4619 8.36035 78.8652 8.2054 79.166 7.89551C79.4714 7.58105 79.624 7.1709 79.624 6.66504C79.624 6.15918 79.4668 5.74674 79.1523 5.42773C78.8379 5.10872 78.4391 4.94922 77.9561 4.94922ZM87.5605 9.625C87.2962 9.93945 86.9795 10.1924 86.6104 10.3838C86.2458 10.5752 85.8447 10.6709 85.4072 10.6709C84.833 10.6709 84.3317 10.5296 83.9033 10.2471C83.4795 9.96452 83.1514 9.56803 82.9189 9.05762C82.6865 8.54264 82.5703 7.97526 82.5703 7.35547C82.5703 6.6901 82.6956 6.09082 82.9463 5.55762C83.2015 5.02441 83.5615 4.61654 84.0264 4.33398C84.4912 4.05143 85.0335 3.91016 85.6533 3.91016C86.6377 3.91016 87.4124 4.2793 87.9775 5.01758C88.5472 5.7513 88.832 6.75391 88.832 8.02539V8.39453C88.832 10.3314 88.4492 11.7464 87.6836 12.6396C86.918 13.5283 85.7627 13.984 84.2178 14.0068H83.9717V12.9404H84.2383C85.2819 12.9222 86.084 12.651 86.6445 12.127C87.2051 11.5983 87.5104 10.7643 87.5605 9.625ZM85.6123 9.625C86.0361 9.625 86.4258 9.49512 86.7812 9.23535C87.1413 8.97559 87.4033 8.6543 87.5674 8.27148V7.76562C87.5674 6.9362 87.3874 6.26172 87.0273 5.74219C86.6673 5.22266 86.2116 4.96289 85.6602 4.96289C85.1042 4.96289 84.6576 5.17708 84.3203 5.60547C83.9831 6.0293 83.8145 6.58984 83.8145 7.28711C83.8145 7.96615 83.9762 8.52669 84.2998 8.96875C84.6279 9.40625 85.0654 9.625 85.6123 9.625ZM98.8945 9.625C98.6302 9.93945 98.3135 10.1924 97.9443 10.3838C97.5798 10.5752 97.1787 10.6709 96.7412 10.6709C96.167 10.6709 95.6657 10.5296 95.2373 10.2471C94.8135 9.96452 94.4854 9.56803 94.2529 9.05762C94.0205 8.54264 93.9043 7.97526 93.9043 7.35547C93.9043 6.6901 94.0296 6.09082 94.2803 5.55762C94.5355 5.02441 94.8955 4.61654 95.3604 4.33398C95.8252 4.05143 96.3675 3.91016 96.9873 3.91016C97.9717 3.91016 98.7464 4.2793 99.3115 5.01758C99.8812 5.7513 100.166 6.75391 100.166 8.02539V8.39453C100.166 10.3314 99.7832 11.7464 99.0176 12.6396C98.252 13.5283 97.0967 13.984 95.5518 14.0068H95.3057V12.9404H95.5723C96.6159 12.9222 97.418 12.651 97.9785 12.127C98.5391 11.5983 98.8444 10.7643 98.8945 9.625ZM96.9463 9.625C97.3701 9.625 97.7598 9.49512 98.1152 9.23535C98.4753 8.97559 98.7373 8.6543 98.9014 8.27148V7.76562C98.9014 6.9362 98.7214 6.26172 98.3613 5.74219C98.0013 5.22266 97.5456 4.96289 96.9941 4.96289C96.4382 4.96289 95.9915 5.17708 95.6543 5.60547C95.3171 6.0293 95.1484 6.58984 95.1484 7.28711C95.1484 7.96615 95.3102 8.52669 95.6338 8.96875C95.9619 9.40625 96.3994 9.625 96.9463 9.625ZM106.756 9.625C106.492 9.93945 106.175 10.1924 105.806 10.3838C105.441 10.5752 105.04 10.6709 104.603 10.6709C104.028 10.6709 103.527 10.5296 103.099 10.2471C102.675 9.96452 102.347 9.56803 102.114 9.05762C101.882 8.54264 101.766 7.97526 101.766 7.35547C101.766 6.6901 101.891 6.09082 102.142 5.55762C102.397 5.02441 102.757 4.61654 103.222 4.33398C103.687 4.05143 104.229 3.91016 104.849 3.91016C105.833 3.91016 106.608 4.2793 107.173 5.01758C107.743 5.7513 108.027 6.75391 108.027 8.02539V8.39453C108.027 10.3314 107.645 11.7464 106.879 12.6396C106.113 13.5283 104.958 13.984 103.413 14.0068H103.167V12.9404H103.434C104.477 12.9222 105.279 12.651 105.84 12.127C106.4 11.5983 106.706 10.7643 106.756 9.625ZM104.808 9.625C105.231 9.625 105.621 9.49512 105.977 9.23535C106.337 8.97559 106.599 8.6543 106.763 8.27148V7.76562C106.763 6.9362 106.583 6.26172 106.223 5.74219C105.863 5.22266 105.407 4.96289 104.855 4.96289C104.299 4.96289 103.853 5.17708 103.516 5.60547C103.178 6.0293 103.01 6.58984 103.01 7.28711C103.01 7.96615 103.172 8.52669 103.495 8.96875C103.823 9.40625 104.261 9.625 104.808 9.625ZM117.399 14H116.128V5.57129L113.578 6.50781V5.35938L117.201 3.99902H117.399V14ZM125.261 14H123.989V5.57129L121.439 6.50781V5.35938L125.062 3.99902H125.261V14ZM133.812 9.625C133.548 9.93945 133.231 10.1924 132.862 10.3838C132.498 10.5752 132.097 10.6709 131.659 10.6709C131.085 10.6709 130.584 10.5296 130.155 10.2471C129.731 9.96452 129.403 9.56803 129.171 9.05762C128.938 8.54264 128.822 7.97526 128.822 7.35547C128.822 6.6901 128.948 6.09082 129.198 5.55762C129.453 5.02441 129.813 4.61654 130.278 4.33398C130.743 4.05143 131.285 3.91016 131.905 3.91016C132.89 3.91016 133.664 4.2793 134.229 5.01758C134.799 5.7513 135.084 6.75391 135.084 8.02539V8.39453C135.084 10.3314 134.701 11.7464 133.936 12.6396C133.17 13.5283 132.015 13.984 130.47 14.0068H130.224V12.9404H130.49C131.534 12.9222 132.336 12.651 132.896 12.127C133.457 11.5983 133.762 10.7643 133.812 9.625ZM131.864 9.625C132.288 9.625 132.678 9.49512 133.033 9.23535C133.393 8.97559 133.655 8.6543 133.819 8.27148V7.76562C133.819 6.9362 133.639 6.26172 133.279 5.74219C132.919 5.22266 132.464 4.96289 131.912 4.96289C131.356 4.96289 130.91 5.17708 130.572 5.60547C130.235 6.0293 130.066 6.58984 130.066 7.28711C130.066 7.96615 130.228 8.52669 130.552 8.96875C130.88 9.40625 131.317 9.625 131.864 9.625Z" fill="#414141"/>
<path d="M5.21922 2H3C1.89543 2 1 2.89543 1 4V6C1 11.5228 5.47715 16 11 16H13C14.1046 16 15 15.1046 15 14V12.618C15 12.2393 14.786 11.893 14.4472 11.7236L12.0313 10.5156C11.487 10.2435 10.8278 10.5165 10.6354 11.0938L10.3376 11.9871C10.1447 12.5658 9.55118 12.9102 8.95309 12.7906C6.55929 12.3119 4.68814 10.4407 4.20938 8.04691C4.08976 7.44882 4.43422 6.85526 5.01286 6.66238L6.12149 6.29284C6.61721 6.1276 6.90214 5.60855 6.7754 5.10162L6.18937 2.75746C6.07807 2.3123 5.67809 2 5.21922 2Z" stroke="black"/>
</svg>
